<?xml version="1.0" standalone="no"?>
<!DOCTYPE svg PUBLIC "-//W3C//DTD SVG 20010904//EN"
 "http://www.w3.org/TR/2001/REC-SVG-20010904/DTD/svg10.dtd">
<svg version="1.0" xmlns="http://www.w3.org/2000/svg"
 width="842.000000pt" height="244.000000pt" viewBox="0 0 842.000000 244.000000"
 preserveAspectRatio="xMidYMid meet">

<g transform="translate(0.000000,244.000000) scale(0.100000,-0.100000)"
fill="#000000" stroke="none">
<path d="M8042 2368 c2 -27 8 -34 29 -36 23 -3 27 1 31 28 6 37 3 40 -34 40
-27 0 -29 -3 -26 -32z"/>
<path d="M8165 2262 c-3 -3 -5 -23 -5 -44 0 -38 0 -38 40 -38 l40 0 0 40 c0
25 -5 40 -12 41 -7 0 -23 2 -36 3 -12 2 -24 0 -27 -2z"/>
<path d="M7920 2180 l0 -80 85 0 85 0 0 80 0 80 -85 0 -85 0 0 -80z"/>
<path d="M7371 2095 l-126 -124 -95 -3 -95 -3 -3 -477 -2 -478 468 0 c444 0
471 1 528 20 114 39 195 121 236 238 17 49 19 77 16 236 -3 174 -4 183 -31
237 -38 79 -95 140 -166 178 -59 31 -61 34 -61 72 0 38 -1 39 -35 39 l-35 0
-2 -342 -3 -343 -330 0 -330 0 0 280 0 280 103 2 c57 1 110 4 117 7 11 4 15
32 17 118 l3 113 153 3 152 3 0 34 0 35 -177 0 -176 0 -126 -125z m99 -65 l0
-50 -57 0 -57 0 49 50 c27 28 53 50 57 50 4 0 8 -22 8 -50z"/>
<path d="M20 1391 c0 -343 2 -380 16 -383 9 -2 109 -1 223 2 201 5 208 6 268
34 73 33 154 113 184 180 10 24 23 71 27 105 24 172 -58 327 -214 406 l-59 30
-222 3 -223 3 0 -380z m420 177 c126 -64 146 -236 40 -331 -45 -41 -115 -60
-205 -55 l-60 3 -3 203 -2 202 93 0 c76 0 101 -4 137 -22z"/>
<path d="M1042 1388 l3 -382 23 1 c12 0 56 1 97 2 l75 1 0 121 0 120 42 -3 43
-3 65 -117 65 -118 70 -1 c38 0 85 -1 103 -2 19 -1 36 1 39 5 2 5 -30 70 -71
145 l-75 137 36 35 c51 49 73 103 73 182 0 110 -50 191 -145 235 -47 22 -62
24 -248 24 l-197 0 2 -382z m383 177 c33 -32 33 -74 -1 -106 -22 -20 -38 -24
-105 -28 l-79 -3 0 81 0 81 80 0 c73 0 83 -3 105 -25z"/>
<path d="M1922 1388 l3 -382 28 1 c15 1 126 1 247 2 l220 1 0 85 0 84 -147 3
-148 3 0 60 0 60 128 3 127 3 0 84 0 85 -130 0 -130 0 0 55 0 54 143 3 142 3
3 88 3 87 -246 0 -245 0 2 -382z"/>
<path d="M2710 1390 c0 -355 1 -380 18 -381 9 -1 52 -2 94 -2 l78 -2 0 383 0
382 -95 0 -95 0 0 -380z"/>
<path d="M3184 1753 c3 -10 23 -85 45 -168 68 -257 153 -570 154 -572 1 0 49
-3 106 -5 l104 -3 59 200 c33 110 63 204 67 208 4 4 34 -81 67 -189 32 -108
62 -200 65 -206 5 -8 68 -11 182 -9 15 1 29 7 32 14 13 41 195 725 195 735 0
9 -27 12 -97 12 l-98 0 -55 -214 c-30 -118 -57 -213 -60 -211 -3 2 -33 98 -65
214 l-60 211 -102 0 -101 0 -11 -32 c-5 -18 -33 -115 -62 -216 -29 -101 -56
-177 -60 -170 -3 7 -25 87 -48 178 -23 91 -47 182 -52 203 l-10 37 -100 0
c-91 0 -100 -2 -95 -17z"/>
<path d="M4505 1757 c-3 -6 -4 -178 -3 -382 l3 -369 28 1 c15 1 126 1 247 2
l220 1 0 85 0 84 -147 3 -148 3 0 60 0 60 133 3 132 3 0 84 0 84 -132 3 -133
3 -3 53 -3 52 145 0 c135 0 145 1 151 20 7 21 5 127 -3 148 -6 18 -480 18
-487 -1z"/>
<path d="M5286 1763 c-6 -7 -8 -747 -1 -754 2 -2 46 -3 99 -1 l96 3 0 120 0
119 43 0 42 0 65 -120 c36 -66 68 -120 73 -120 9 -1 169 -1 198 0 l21 0 -20
33 c-46 74 -132 239 -132 251 0 8 11 21 24 29 41 27 77 116 78 190 0 81 -24
139 -82 190 -69 63 -86 67 -303 67 -107 0 -197 -3 -201 -7z m381 -195 c44 -42
22 -118 -40 -133 -12 -4 -50 -5 -82 -3 l-60 3 -3 78 -3 77 82 0 c71 0 86 -3
106 -22z"/>
<path d="M6162 1388 l3 -382 28 1 c15 1 59 1 97 2 l70 1 0 88 c0 81 2 92 28
125 15 20 30 36 33 37 6 0 167 -205 188 -239 6 -8 44 -12 125 -13 64 0 119 1
121 4 2 2 -8 20 -24 39 -111 136 -280 372 -274 382 4 7 64 83 135 169 70 86
128 159 128 162 0 4 -53 6 -119 6 l-118 0 -109 -132 -109 -132 -5 130 -5 129
-98 3 -97 3 2 -383z"/>
<path d="M176 875 c-86 -30 -144 -124 -132 -211 12 -94 64 -141 204 -185 68
-22 112 -48 112 -69 0 -15 -30 -40 -56 -46 -44 -11 -91 5 -123 41 -17 19 -32
35 -35 35 -3 0 -32 -16 -65 -36 -37 -22 -61 -43 -61 -53 0 -26 67 -99 114
-124 34 -18 57 -22 141 -22 91 0 104 2 147 28 67 39 91 78 96 154 3 37 -1 76
-8 93 -21 52 -91 103 -180 134 -93 33 -126 55 -117 80 17 44 93 38 133 -11
l20 -26 67 37 c37 21 67 44 67 52 0 25 -74 97 -125 120 -58 27 -138 31 -199 9z"/>
<path d="M7882 875 c-98 -44 -136 -103 -130 -200 6 -101 63 -156 207 -199 98
-29 127 -66 79 -100 -44 -31 -138 -9 -160 38 -6 15 -16 26 -21 26 -7 0 -115
-61 -136 -76 -1 -1 7 -21 20 -43 42 -75 131 -120 240 -121 155 -1 249 76 249
202 0 104 -58 164 -215 222 -80 29 -90 36 -93 59 -7 54 79 57 123 5 14 -16 29
-28 33 -26 42 18 132 75 132 84 0 21 -73 95 -114 116 -53 28 -167 35 -214 13z"/>
<path d="M1158 857 c-69 -29 -104 -57 -152 -121 -125 -168 -61 -414 133 -505
48 -22 69 -26 151 -26 114 0 167 21 243 97 71 71 91 123 91 238 1 79 -3 103
-22 141 -35 72 -84 122 -154 159 -55 30 -74 34 -148 37 -72 3 -94 0 -142 -20z
m167 -148 c82 -23 135 -89 135 -168 0 -102 -67 -170 -168 -172 -104 -3 -177
68 -177 171 0 84 48 144 133 170 36 11 32 11 77 -1z"/>
<path d="M2100 545 l0 -335 210 0 211 0 -3 78 -3 77 -125 2 -125 1 -3 256 -2
256 -80 0 -80 0 0 -335z"/>
<path d="M2980 630 c0 -282 2 -293 70 -358 50 -50 113 -72 201 -72 94 0 180
44 224 114 l30 49 3 259 3 259 -83 -3 -83 -3 -5 -235 c-3 -129 -9 -240 -13
-247 -14 -21 -78 -34 -118 -23 -63 17 -64 19 -67 277 l-3 233 -80 0 -79 0 0
-250z"/>
<path d="M4930 545 l0 -335 85 0 85 0 -2 333 -3 332 -82 3 -83 3 0 -336z"/>
<path d="M5783 860 c-109 -44 -204 -166 -218 -284 -8 -64 13 -158 49 -214 36
-58 111 -119 175 -143 79 -30 196 -24 273 14 62 30 125 93 160 159 20 37 23
57 23 148 0 91 -3 111 -23 148 -35 67 -98 129 -160 159 -76 37 -202 43 -279
13z m207 -165 c59 -30 90 -84 90 -158 0 -98 -70 -167 -169 -167 -88 0 -165 62
-178 144 -12 74 55 176 125 192 15 3 32 7 37 9 16 4 68 -7 95 -20z"/>
<path d="M6720 545 l0 -335 80 0 80 0 0 175 c0 96 4 175 9 175 5 0 42 -53 82
-117 40 -65 90 -144 111 -175 l39 -58 69 0 70 0 0 335 0 336 -82 -3 -83 -3 -5
-158 -5 -157 -79 127 c-128 207 -113 193 -207 193 l-79 0 0 -335z"/>
<path d="M3969 818 c0 -29 -2 -63 -3 -75 -3 -22 0 -23 81 -23 l83 0 1 -232 c1
-128 2 -242 3 -253 1 -18 9 -20 84 -23 l82 -3 0 256 0 255 85 0 85 0 0 75 0
75 -250 0 -250 0 -1 -52z"/>
</g>
</svg>
