<?xml version="1.0" standalone="no"?>
<!DOCTYPE svg PUBLIC "-//W3C//DTD SVG 20010904//EN"
 "http://www.w3.org/TR/2001/REC-SVG-20010904/DTD/svg10.dtd">
<svg version="1.0" xmlns="http://www.w3.org/2000/svg"
 width="844.000000pt" height="367.000000pt" viewBox="0 0 844.000000 367.000000"
 preserveAspectRatio="xMidYMid meet">

<g transform="translate(0.000000,367.000000) scale(0.100000,-0.100000)"
fill="#000000" stroke="none">
<path d="M2352 3398 l3 -73 73 -3 72 -3 0 76 0 75 -75 0 -76 0 3 -72z"/>
<path d="M3058 3164 c-5 -4 -8 -117 -8 -251 l0 -243 33 -1 c193 -3 263 3 313
25 108 50 160 181 122 307 -15 51 -69 114 -122 142 -36 19 -60 22 -186 25 -80
2 -148 0 -152 -4z m283 -137 c42 -28 59 -60 59 -112 0 -83 -73 -140 -171 -133
l-44 3 -3 133 -3 132 64 0 c50 0 71 -5 98 -23z"/>
<path d="M3730 2922 c0 -156 4 -252 10 -254 5 -1 35 -1 66 0 l55 4 -1 61 c-2
96 -2 97 23 97 17 0 32 -17 67 -80 l45 -80 50 -1 c28 -1 57 -3 65 -4 31 -3 29
9 -17 95 -35 65 -45 93 -38 103 40 56 48 71 55 102 15 66 -13 134 -74 179 -24
18 -45 21 -167 24 l-139 4 0 -250z m248 116 c17 -17 15 -63 -3 -78 -9 -7 -38
-15 -64 -18 l-49 -4 -3 52 c-2 28 -2 54 0 56 10 9 108 3 119 -8z"/>
<path d="M4300 2921 l0 -250 133 -3 c72 -2 147 -2 165 0 32 3 32 4 32 57 l0
54 -97 3 -98 3 -3 38 -3 37 78 0 c43 0 84 4 91 9 9 5 12 25 10 57 l-3 49 -85
5 -85 5 -3 33 -3 32 95 0 96 0 0 60 0 60 -160 0 -160 0 0 -249z"/>
<path d="M5990 2920 l0 -250 165 0 165 0 0 55 0 54 -97 3 -98 3 -3 38 -3 37
78 0 c43 0 84 4 91 9 9 5 12 25 10 57 l-3 49 -85 5 -85 5 -3 33 -3 32 95 0 96
0 0 60 0 60 -160 0 -160 0 0 -250z"/>
<path d="M6500 2921 l0 -251 65 0 64 0 3 78 c3 74 4 77 27 77 20 0 32 -13 63
-70 21 -38 39 -74 41 -78 3 -9 134 -13 143 -5 2 3 -16 44 -41 91 l-46 85 33
47 c28 39 33 55 33 103 -1 67 -21 107 -73 142 -33 23 -46 25 -174 28 l-138 4
0 -251z m256 104 c15 -23 15 -27 0 -50 -16 -24 -65 -40 -103 -33 -14 2 -19 14
-21 56 l-3 52 55 0 c48 0 58 -3 72 -25z"/>
<path d="M2087 3153 c-4 -3 -7 -89 -7 -190 l0 -183 190 0 190 0 0 190 0 190
-183 0 c-101 0 -187 -3 -190 -7z"/>
<path d="M2620 3065 l0 -95 95 0 95 0 0 95 0 95 -95 0 -95 0 0 -95z"/>
<path d="M4820 2916 l0 -244 30 -4 c17 -3 44 -3 60 0 l30 4 1 227 c0 124 2
234 4 244 3 15 -5 17 -61 17 l-64 0 0 -244z"/>
<path d="M5130 3148 c0 -7 29 -116 64 -243 l63 -230 71 -3 c61 -2 71 0 76 15
34 119 70 230 76 236 3 4 12 -12 19 -35 6 -24 24 -82 38 -130 l26 -88 71 0 71
0 42 158 c23 86 53 196 67 245 l24 87 -68 0 -68 0 -32 -130 c-18 -71 -36 -130
-40 -130 -3 0 -14 28 -24 63 -9 34 -26 92 -37 130 l-20 67 -69 0 -69 0 -11
-42 c-35 -129 -69 -231 -74 -218 -5 16 -66 250 -66 256 0 2 -29 4 -65 4 -45 0
-65 -4 -65 -12z"/>
<path d="M7077 3146 c-3 -8 -5 -117 -4 -243 l2 -228 63 -3 62 -3 0 53 c0 40 6
60 23 82 l23 29 63 -82 c54 -69 68 -81 95 -82 48 -2 119 1 123 4 1 2 -42 61
-97 132 -56 73 -96 134 -91 140 4 5 44 56 89 113 l83 102 -83 0 -83 0 -65 -80
c-36 -44 -68 -80 -72 -80 -5 0 -8 36 -8 80 l0 80 -59 0 c-42 0 -60 -4 -64 -14z"/>
<path d="M815 2770 l-279 -280 -221 -2 -220 -3 -3 -1104 -2 -1104 1037 6 c965
7 1044 8 1129 26 337 70 607 345 681 691 26 125 26 646 0 769 -36 167 -108
306 -221 428 -84 91 -167 151 -280 204 l-85 40 -3 87 -3 87 -77 3 -78 3 -2
-778 -3 -778 -760 0 -760 0 0 635 0 635 247 5 c243 5 247 5 272 29 l26 24 2
246 3 246 353 3 352 2 0 80 0 80 -413 0 -412 0 -280 -280z m235 -130 l0 -130
-132 0 -133 0 130 130 c71 72 131 130 132 130 2 0 3 -58 3 -130z"/>
<path d="M3132 2199 c-98 -49 -110 -194 -20 -249 18 -11 61 -29 95 -41 34 -11
66 -26 72 -33 18 -21 2 -45 -34 -52 -36 -6 -71 7 -96 39 -16 20 -16 20 -68 -9
-28 -16 -51 -32 -51 -35 0 -3 10 -21 23 -39 34 -51 97 -80 174 -80 140 0 221
93 179 205 -20 51 -44 69 -146 110 -58 24 -75 35 -75 50 0 31 60 33 92 3 l24
-23 47 27 c25 14 48 31 50 36 5 16 -48 72 -89 92 -51 26 -122 26 -177 -1z"/>
<path d="M3715 2196 c-167 -76 -207 -294 -77 -424 102 -102 285 -96 380 12 46
52 62 98 62 175 0 116 -64 208 -173 248 -53 19 -136 14 -192 -11z m202 -150
c27 -29 33 -44 33 -81 0 -88 -47 -135 -135 -135 -127 0 -171 172 -62 241 24
15 44 19 81 16 42 -4 55 -10 83 -41z"/>
<path d="M5337 2214 c-4 -4 -7 -31 -7 -60 l0 -53 63 -3 62 -3 3 -192 2 -193
65 0 65 0 0 195 0 195 60 0 61 0 -3 58 -3 57 -181 3 c-99 1 -183 -1 -187 -4z"/>
<path d="M6364 2204 c-57 -20 -115 -72 -144 -130 -29 -58 -32 -158 -8 -215 72
-167 302 -215 426 -88 73 74 96 165 68 263 -41 140 -201 220 -342 170z m162
-133 c81 -49 81 -173 -1 -227 -35 -23 -108 -20 -144 5 -32 23 -61 76 -61 113
0 34 31 86 65 108 38 25 101 26 141 1z"/>
<path d="M7592 2203 c-78 -38 -108 -118 -74 -196 21 -47 56 -69 175 -112 52
-18 63 -46 26 -66 -30 -15 -78 -4 -110 27 l-27 26 -46 -27 c-26 -15 -46 -34
-46 -44 0 -23 57 -81 97 -97 18 -8 61 -14 96 -14 114 0 187 61 187 155 0 76
-57 131 -177 169 -49 16 -70 37 -57 57 10 17 67 9 91 -13 l24 -22 46 24 c56
29 61 41 34 79 -45 63 -165 91 -239 54z"/>
<path d="M4260 1960 l0 -250 165 0 165 0 0 44 c0 76 -1 76 -106 76 l-94 0 -2
188 -3 187 -62 3 -63 3 0 -251z"/>
<path d="M4762 2008 c3 -197 4 -204 27 -236 35 -46 95 -72 167 -72 75 0 132
26 170 76 l29 37 3 199 3 199 -63 -3 -63 -3 -3 -176 c-3 -199 -4 -202 -74
-202 -72 0 -78 16 -78 214 l0 169 -61 0 -60 0 3 -202z"/>
<path d="M5890 1960 l0 -250 65 0 65 0 -2 248 -3 247 -62 3 -63 3 0 -251z"/>
<path d="M6894 2197 c-2 -7 -3 -118 -2 -247 l3 -235 62 -3 62 -3 3 133 3 133
60 -93 c115 -179 107 -172 170 -172 l55 0 -2 248 -3 247 -60 0 -60 0 -5 -115
-5 -115 -77 118 -77 117 -61 0 c-40 0 -62 -4 -66 -13z"/>
<path d="M3708 964 c-5 -4 -8 -56 -8 -116 l0 -108 30 0 c28 0 30 3 30 35 0 19
4 35 9 35 5 0 19 -16 31 -35 17 -27 28 -35 51 -35 33 0 35 7 12 48 -16 27 -16
31 0 65 18 38 13 72 -15 95 -18 14 -130 27 -140 16z m107 -74 c0 -9 -11 -16
-27 -18 -23 -3 -28 1 -28 18 0 17 5 21 28 18 16 -2 27 -9 27 -18z"/>
<path d="M4312 959 c-61 -18 -93 -114 -56 -167 20 -29 65 -52 102 -52 59 0
126 70 109 114 -6 14 -18 16 -64 14 -54 -3 -58 -5 -58 -28 0 -17 7 -26 25 -31
25 -7 25 -7 -3 -8 -43 -2 -67 16 -67 48 0 50 47 75 90 49 17 -11 23 -9 41 9
l21 21 -24 16 c-33 21 -76 27 -116 15z"/>
<path d="M4627 964 c-4 -4 -7 -56 -7 -116 l0 -109 72 3 c62 3 73 6 76 22 5 24
-14 36 -55 36 -23 0 -33 5 -33 15 0 11 11 15 40 15 36 0 40 3 40 25 0 23 -4
25 -40 25 -29 0 -40 4 -40 15 0 11 11 15 39 15 30 0 40 4 44 20 3 10 0 23 -7
28 -14 11 -119 16 -129 6z"/>
<path d="M4930 950 c-38 -38 -19 -83 46 -112 25 -10 42 -23 39 -29 -8 -13 -39
-11 -53 3 -9 9 -18 8 -39 -1 l-28 -13 33 -29 c48 -43 121 -35 144 16 17 38 -3
72 -57 95 -53 23 -59 35 -12 26 22 -4 39 -1 52 9 20 15 20 15 -4 35 -31 27
-94 27 -121 0z"/>
<path d="M5217 964 c-4 -4 -7 -18 -7 -31 0 -18 5 -23 25 -23 24 0 24 -2 27
-82 3 -82 3 -83 31 -86 l27 -3 0 85 0 86 31 0 c27 0 30 3 27 28 -3 26 -4 27
-78 30 -42 1 -79 0 -83 -4z"/>
<path d="M6097 964 c-4 -4 -7 -18 -7 -31 0 -19 5 -23 30 -23 l30 0 0 -86 0
-85 28 3 c27 3 27 4 30 86 3 80 3 82 28 82 22 0 25 4 22 28 -3 26 -4 27 -78
30 -42 1 -79 0 -83 -4z"/>
<path d="M6413 963 c-9 -3 -13 -36 -13 -114 l0 -110 73 3 c69 3 72 4 72 28 0
22 -5 25 -43 28 -53 4 -52 26 1 30 31 3 37 7 37 27 0 20 -6 24 -37 27 -53 4
-54 26 -1 30 38 3 43 6 43 28 0 24 -3 25 -60 26 -33 1 -66 -1 -72 -3z"/>
<path d="M7868 964 c-5 -4 -8 -56 -8 -116 l0 -109 28 3 c22 2 28 8 30 36 4 41
15 41 41 -3 16 -28 27 -35 51 -35 36 0 36 0 10 49 -17 34 -18 41 -5 51 20 17
19 73 -2 99 -13 16 -34 23 -78 27 -33 3 -63 3 -67 -2z m102 -74 c0 -15 -7 -20
-25 -20 -18 0 -25 5 -25 20 0 15 7 20 25 20 18 0 25 -5 25 -20z"/>
<path d="M8184 956 c-3 -7 -3 -57 -2 -112 l3 -99 70 0 c68 0 70 1 70 25 0 22
-5 25 -42 28 -29 2 -43 8 -43 18 0 10 12 14 40 14 36 0 40 3 40 24 0 21 -5 25
-37 28 -53 4 -54 26 -1 30 38 3 43 6 43 28 0 24 -3 25 -68 27 -46 1 -70 -3
-73 -11z"/>
<path d="M3020 948 c0 -7 13 -56 28 -108 26 -92 28 -95 58 -98 28 -3 31 0 48
53 9 30 19 55 21 55 2 0 11 -25 20 -56 15 -53 17 -55 48 -52 30 3 32 6 53 79
40 140 40 139 6 139 -28 0 -31 -4 -42 -50 -7 -27 -16 -50 -20 -50 -4 0 -13 23
-20 50 -11 47 -14 50 -44 50 -31 0 -33 -3 -51 -57 l-18 -58 -15 58 c-13 53
-16 57 -43 57 -17 0 -29 -5 -29 -12z"/>
<path d="M3480 849 l0 -110 28 3 27 3 3 108 3 107 -31 0 -30 0 0 -111z"/>
<path d="M5555 948 c-2 -7 -20 -55 -40 -106 -19 -52 -35 -96 -35 -98 0 -2 14
-4 31 -4 22 0 32 5 36 20 4 16 14 20 43 20 30 0 40 -5 45 -20 4 -14 15 -20 36
-20 16 0 29 3 29 8 0 4 -16 53 -37 110 -37 101 -37 102 -70 102 -19 0 -36 -6
-38 -12z m41 -105 c-10 -10 -19 5 -10 18 6 11 8 11 12 0 2 -7 1 -15 -2 -18z"/>
<path d="M5842 853 l3 -108 73 -3 73 -3 -3 28 c-3 25 -7 28 -43 29 l-40 0 -3
82 -3 82 -30 0 -30 0 3 -107z"/>
<path d="M6702 853 l3 -108 28 -3 c26 -3 27 -2 27 47 0 28 3 51 8 51 4 0 22
-23 40 -51 25 -39 38 -50 55 -47 21 3 22 8 25 111 l3 107 -31 0 c-28 0 -30 -2
-30 -40 0 -22 -3 -40 -8 -40 -4 0 -18 18 -32 40 -21 34 -30 40 -58 40 l-33 0
3 -107z"/>
<path d="M7264 947 c-3 -8 -3 -56 -2 -108 l3 -94 30 0 c22 0 30 5 29 18 0 9
-1 58 -2 107 -2 89 -2 90 -27 90 -14 0 -28 -6 -31 -13z"/>
<path d="M7490 849 l0 -110 28 3 c24 3 27 7 30 46 3 42 3 42 42 42 39 0 39 0
42 -42 3 -39 6 -43 31 -46 l27 -3 0 110 0 111 -30 0 c-28 0 -30 -3 -30 -35 0
-34 -1 -35 -40 -35 -39 0 -40 1 -40 35 0 32 -2 35 -30 35 l-30 0 0 -111z"/>
<path d="M3038 534 c-5 -4 -8 -56 -8 -116 l0 -108 64 0 c76 0 123 26 144 81
12 31 11 41 -1 72 -9 19 -27 43 -41 52 -27 18 -146 32 -158 19z m126 -67 c21
-16 24 -60 6 -82 -7 -8 -28 -15 -46 -15 l-34 0 0 55 c0 54 1 55 28 55 16 0 36
-6 46 -13z"/>
<path d="M3674 526 c-43 -19 -64 -53 -64 -102 0 -82 89 -135 165 -98 43 20 68
54 63 86 -3 21 -8 23 -63 23 -55 0 -60 -2 -63 -23 -2 -16 3 -25 20 -31 l23
-10 -23 0 c-38 -1 -62 17 -62 48 0 49 47 75 89 49 15 -9 23 -9 35 1 25 21 19
41 -19 57 -42 17 -61 17 -101 0z"/>
<path d="M4207 533 c-4 -3 -7 -17 -7 -30 0 -19 5 -23 30 -23 l30 0 0 -86 0
-85 28 3 c27 3 27 4 30 86 3 80 3 82 27 82 21 0 25 5 25 30 l0 30 -78 0 c-43
0 -82 -3 -85 -7z"/>
<path d="M5134 527 c-2 -7 -3 -58 -2 -113 l3 -99 70 0 c68 0 70 1 70 25 0 21
-5 26 -38 30 -49 7 -52 24 -4 28 31 3 37 7 37 27 0 20 -6 24 -37 27 -53 4 -54
26 -1 30 38 3 43 6 43 28 0 24 -3 25 -68 28 -50 2 -69 -1 -73 -11z"/>
<path d="M5636 525 c-10 -28 5 -45 40 -45 19 0 34 -2 34 -4 0 -3 -18 -34 -40
-69 -54 -86 -49 -97 46 -97 l74 0 0 30 c0 28 -3 30 -35 30 -19 0 -35 3 -35 8
0 4 16 31 35 59 19 29 35 64 35 78 0 25 -1 25 -74 25 -56 0 -75 -4 -80 -15z"/>
<path d="M7324 527 c-2 -7 -3 -58 -2 -113 l3 -99 28 -3 c21 -3 27 1 28 17 1
12 2 31 3 44 1 18 8 23 41 27 32 4 41 9 43 28 3 20 -1 22 -37 22 -30 0 -41 4
-41 15 0 11 11 15 41 15 38 0 40 1 37 28 -3 26 -5 27 -71 30 -50 2 -69 -1 -73
-11z"/>
<path d="M7620 510 c0 -25 4 -30 25 -30 24 0 24 -2 27 -82 3 -82 3 -83 31 -86
l27 -3 0 85 0 85 28 3 c21 2 27 8 27 28 0 24 -2 25 -82 28 l-83 3 0 -31z"/>
<path d="M3400 419 l0 -110 28 3 27 3 3 108 3 107 -31 0 -30 0 0 -111z"/>
<path d="M3996 522 c-7 -12 -4 -189 4 -202 4 -6 18 -10 31 -8 23 3 24 6 27
111 l3 107 -30 0 c-16 0 -32 -3 -35 -8z"/>
<path d="M4517 434 c-21 -53 -37 -103 -37 -110 0 -22 48 -17 60 6 8 15 21 20
49 20 30 0 40 -4 44 -20 5 -20 51 -29 60 -12 2 4 -12 52 -33 107 -36 99 -37
100 -72 103 l-35 3 -36 -97z m83 -15 c0 -5 -4 -9 -10 -9 -5 0 -10 7 -10 16 0
8 5 12 10 9 6 -3 10 -10 10 -16z"/>
<path d="M4840 420 l0 -111 73 3 c69 3 72 4 72 28 0 22 -5 25 -42 28 l-43 3 0
80 0 79 -30 0 -30 0 0 -110z"/>
<path d="M5940 451 c0 -68 3 -84 23 -106 30 -35 82 -42 123 -17 35 22 44 52
44 143 0 59 0 59 -30 59 l-29 0 -3 -71 c-3 -75 -17 -99 -52 -86 -13 5 -16 21
-16 82 l0 75 -30 0 -30 0 0 -79z"/>
<path d="M6290 419 l0 -110 28 3 c22 2 28 8 30 36 4 41 14 40 50 -4 24 -29 35
-35 61 -32 l32 3 -40 57 c-23 31 -41 60 -41 64 0 4 16 27 36 50 l35 44 -37 0
c-30 0 -43 -7 -65 -32 l-28 -33 -1 33 c0 29 -3 32 -30 32 l-30 0 0 -111z"/>
<path d="M6640 446 c0 -82 1 -85 31 -110 39 -33 79 -33 118 0 30 25 31 28 31
110 l0 84 -30 0 -29 0 -3 -77 c-3 -76 -4 -78 -28 -78 -24 0 -25 2 -28 78 l-3
77 -29 0 -30 0 0 -84z"/>
<path d="M6979 523 c-5 -60 -4 -195 1 -203 4 -7 18 -10 31 -8 21 3 25 10 29
53 l5 50 35 -52 c25 -38 41 -53 57 -53 23 0 23 2 23 110 l0 110 -30 0 c-29 0
-30 -1 -30 -47 l0 -48 -30 48 c-25 39 -35 47 -60 47 -17 0 -30 -3 -31 -7z"/>
<path d="M7944 356 c-9 -24 4 -48 23 -44 12 2 18 12 18 28 0 29 -32 41 -41 16z"/>
</g>
</svg>
