<?xml version="1.0" standalone="no"?>
<!DOCTYPE svg PUBLIC "-//W3C//DTD SVG 20010904//EN"
 "http://www.w3.org/TR/2001/REC-SVG-20010904/DTD/svg10.dtd">
<svg version="1.0" xmlns="http://www.w3.org/2000/svg"
 width="844.000000pt" height="367.000000pt" viewBox="0 0 844.000000 367.000000"
 preserveAspectRatio="xMidYMid meet">

<g transform="translate(0.000000,367.000000) scale(0.100000,-0.100000)"
fill="#000000" stroke="none">
<path d="M0 1835 l0 -1835 4220 0 4220 0 0 1835 0 1835 -4220 0 -4220 0 0
-1835z m2500 1560 l0 -76 -72 3 -73 3 -3 73 -3 72 76 0 75 0 0 -75z m896 -252
c53 -28 107 -91 122 -142 38 -126 -14 -257 -122 -307 -50 -22 -120 -28 -313
-25 l-33 1 0 243 c0 134 3 247 8 251 4 4 72 6 152 4 126 -3 150 -6 186 -25z
m640 1 c61 -45 89 -113 74 -179 -7 -31 -15 -46 -55 -102 -7 -10 3 -38 38 -103
53 -99 54 -97 -42 -92 l-57 4 -44 79 c-35 62 -50 79 -67 79 -22 0 -23 -4 -23
-79 l0 -79 -55 -4 c-30 -1 -60 -1 -65 0 -6 2 -10 98 -10 254 l0 250 139 -4
c122 -3 143 -6 167 -24z m584 -34 l0 -60 -96 0 -95 0 3 -32 3 -33 85 -5 85 -5
3 -49 c2 -32 -1 -52 -10 -57 -7 -5 -48 -9 -91 -9 l-78 0 3 -37 3 -38 98 -3 97
-3 0 -53 c0 -65 8 -62 -192 -58 l-138 3 0 250 0 249 160 0 160 0 0 -60z m1690
0 l0 -60 -96 0 -95 0 3 -32 3 -33 85 -5 85 -5 3 -49 c2 -32 -1 -52 -10 -57 -7
-5 -48 -9 -91 -9 l-78 0 3 -37 3 -38 98 -3 97 -3 0 -54 0 -55 -165 0 -165 0 0
250 0 250 160 0 160 0 0 -60z m502 30 c52 -35 72 -75 73 -142 0 -48 -5 -63
-33 -103 l-33 -47 46 -85 c25 -47 43 -88 41 -91 -9 -8 -140 -4 -143 5 -2 4
-22 41 -44 81 -33 60 -44 73 -62 70 -20 -3 -22 -10 -25 -79 l-3 -77 -37 -3
c-20 -2 -49 -3 -64 -1 l-28 3 0 250 0 251 138 -4 c128 -3 141 -5 174 -28z
m-4352 -170 l0 -190 -190 0 -190 0 0 183 c0 101 3 187 7 190 3 4 89 7 190 7
l183 0 0 -190z m350 95 l0 -95 -95 0 -95 0 0 95 0 95 95 0 95 0 0 -95z m2130
-149 l0 -244 -30 -4 c-16 -3 -43 -3 -60 0 l-30 4 0 244 0 244 60 0 60 0 0
-244z m320 240 c0 -6 61 -240 66 -256 5 -13 39 89 74 218 l11 42 69 0 69 0 20
-67 c11 -38 28 -96 37 -130 10 -35 21 -63 24 -63 4 0 22 59 40 130 l32 130 68
0 68 0 -24 -87 c-14 -49 -44 -159 -67 -245 l-42 -158 -71 0 -71 0 -31 103
c-17 56 -34 115 -38 130 -4 16 -10 25 -14 20 -6 -6 -41 -114 -76 -236 -5 -15
-15 -17 -76 -15 l-71 3 -63 230 c-35 127 -64 236 -64 243 0 8 20 12 65 12 36
0 65 -2 65 -4z m1940 -76 c0 -44 3 -80 8 -80 4 0 36 36 72 80 l65 80 83 0 82
0 -90 -112 c-55 -69 -86 -116 -81 -122 5 -6 50 -65 100 -131 91 -119 92 -120
65 -125 -15 -3 -51 -3 -80 -2 l-53 4 -62 80 -63 81 -23 -29 c-17 -22 -23 -42
-23 -81 l0 -53 -64 0 -64 0 -1 238 c-1 131 1 241 5 245 4 4 34 7 66 7 l58 0 0
-80z m-5280 -110 l0 -80 -352 -2 -353 -3 -3 -246 -2 -246 -26 -24 c-25 -24
-29 -24 -272 -29 l-247 -5 0 -635 0 -635 760 0 760 0 3 778 2 778 78 -3 77 -3
3 -87 3 -87 85 -40 c261 -122 440 -349 501 -632 26 -123 26 -644 0 -769 -36
-166 -106 -302 -221 -426 -121 -132 -283 -226 -453 -264 -83 -19 -148 -20
-1131 -27 l-1042 -6 2 1104 3 1104 220 3 221 2 279 280 280 280 412 0 413 0 0
-80z m1389 -770 c41 -20 94 -76 89 -92 -2 -5 -25 -22 -50 -36 l-47 -27 -24 23
c-32 30 -92 28 -92 -3 0 -15 17 -26 78 -50 99 -38 143 -79 152 -138 9 -57 -12
-106 -61 -143 -32 -25 -48 -29 -113 -32 -65 -3 -83 0 -121 20 -38 21 -90 76
-90 97 0 3 23 19 51 35 52 29 52 29 68 9 25 -32 60 -45 96 -39 36 7 52 31 34
52 -6 7 -38 22 -72 33 -86 29 -126 56 -143 96 -19 47 -18 89 6 134 37 74 156
104 239 61z m584 9 c65 -16 130 -69 161 -130 31 -62 36 -163 11 -222 -40 -95
-135 -157 -243 -157 -108 0 -184 46 -232 143 -102 204 79 423 303 366z m1815
-51 l3 -58 -61 0 -60 0 0 -195 0 -195 -65 0 -65 0 -2 193 -3 192 -62 3 -63 3
0 53 c0 29 3 56 7 60 4 3 88 5 187 4 l181 -3 3 -57z m837 45 c72 -24 139 -95
161 -169 28 -98 5 -189 -68 -263 -99 -101 -281 -94 -377 14 -47 54 -64 100
-65 175 -1 182 173 303 349 243z m1222 -4 c45 -22 88 -71 80 -92 -3 -7 -25
-24 -50 -37 l-46 -24 -24 22 c-24 22 -81 30 -91 13 -13 -20 8 -41 57 -57 120
-38 177 -93 177 -169 0 -94 -73 -155 -187 -155 -75 0 -117 15 -161 59 -44 44
-41 64 14 96 l46 27 27 -26 c32 -31 80 -42 110 -27 37 20 26 48 -26 66 -119
43 -154 65 -175 112 -34 77 0 166 77 199 46 20 122 17 172 -7z m-3379 -181 l2
-187 98 -3 97 -3 3 -57 2 -58 -165 0 -165 0 0 250 0 251 63 -3 62 -3 3 -187z
m492 23 c0 -198 6 -214 78 -214 70 0 71 3 74 202 l3 176 63 3 62 3 0 -185 c0
-107 -5 -197 -11 -213 -49 -130 -274 -155 -360 -41 -23 32 -24 39 -27 236 l-3
202 60 0 61 0 0 -169z m1138 -83 l2 -248 -65 0 -65 0 0 250 0 251 63 -3 62 -3
3 -247z m1080 135 l77 -118 5 115 5 115 60 0 60 0 3 -247 2 -248 -55 0 c-63 0
-55 -7 -170 172 l-60 93 -3 -133 -3 -133 -62 3 -62 3 -3 235 c-1 129 0 240 2
247 4 9 26 13 66 13 l61 0 77 -117z m-3250 -1145 c28 -23 33 -57 15 -95 -16
-34 -16 -38 0 -65 23 -41 21 -48 -12 -48 -23 0 -34 8 -51 35 -12 19 -26 35
-31 35 -5 0 -9 -16 -9 -35 0 -32 -2 -35 -30 -35 l-30 0 0 108 c0 60 3 112 8
116 10 11 122 -2 140 -16z m580 -4 l24 -16 -21 -21 c-18 -18 -24 -20 -41 -9
-43 26 -90 1 -90 -49 0 -32 24 -50 67 -48 28 1 28 1 3 8 -18 5 -25 14 -25 31
0 23 4 25 58 28 46 2 58 0 64 -14 17 -44 -50 -114 -109 -114 -65 0 -118 49
-118 110 0 97 104 149 188 94z m328 14 c7 -5 10 -18 7 -28 -4 -16 -14 -20 -44
-20 -28 0 -39 -4 -39 -15 0 -11 11 -15 40 -15 36 0 40 -2 40 -25 0 -22 -4 -25
-40 -25 -29 0 -40 -4 -40 -15 0 -10 10 -15 33 -15 41 0 60 -12 55 -36 -3 -16
-14 -19 -76 -22 l-72 -3 0 109 c0 60 3 112 7 116 10 10 115 5 129 -6z m295 -8
c24 -20 24 -20 4 -35 -13 -10 -30 -13 -52 -9 -47 9 -41 -3 12 -26 54 -23 74
-57 57 -95 -23 -49 -94 -59 -142 -19 l-31 27 22 15 c17 12 26 13 40 4 23 -14
46 -15 54 -3 3 6 -14 19 -39 29 -65 29 -84 74 -46 112 27 27 90 27 121 0z
m327 -12 c3 -25 0 -28 -27 -28 l-31 0 0 -86 0 -85 -27 3 c-28 3 -28 4 -31 86
-3 80 -3 82 -27 82 -20 0 -25 5 -25 23 0 13 3 26 6 30 3 3 40 5 82 4 76 -2 77
-2 80 -29z m880 0 c3 -24 0 -28 -22 -28 -25 0 -25 -2 -28 -82 -3 -82 -3 -83
-30 -86 l-28 -3 0 85 0 86 -30 0 c-25 0 -30 4 -30 23 0 13 3 27 7 31 4 4 41 5
83 4 74 -3 75 -4 78 -30z m287 2 c0 -22 -5 -25 -43 -28 -53 -4 -52 -26 1 -30
31 -3 37 -7 37 -27 0 -20 -6 -24 -37 -27 -53 -4 -54 -26 -1 -30 38 -3 43 -6
43 -28 0 -24 -3 -25 -72 -28 l-73 -3 0 109 c0 60 2 111 5 114 3 3 35 4 73 4
65 -1 67 -2 67 -26z m1427 20 c21 -6 42 -19 48 -30 15 -27 12 -76 -5 -90 -13
-10 -12 -17 5 -51 26 -49 26 -49 -10 -49 -24 0 -35 7 -51 35 -26 44 -37 44
-41 3 -2 -28 -8 -34 -30 -36 l-28 -3 0 109 c0 60 3 112 7 115 10 10 63 8 105
-3z m353 -20 c0 -22 -5 -25 -43 -28 -53 -4 -52 -26 1 -30 32 -3 37 -7 37 -28
0 -21 -4 -24 -40 -24 -28 0 -40 -4 -40 -14 0 -10 14 -16 43 -18 37 -3 42 -6
42 -28 0 -24 -2 -25 -70 -25 l-70 0 -3 99 c-1 55 -1 105 2 111 2 7 30 11 72
11 67 -1 69 -2 69 -26z m-5235 -30 c7 -27 15 -48 20 -45 4 2 13 25 20 50 12
42 15 45 45 45 31 0 34 -3 45 -50 7 -27 16 -50 20 -50 4 0 13 23 20 50 11 46
14 50 42 50 34 0 34 1 -6 -139 -21 -73 -23 -76 -53 -79 -31 -3 -33 -1 -48 52
-9 31 -18 56 -20 56 -2 0 -12 -25 -21 -55 -16 -49 -21 -55 -45 -55 -15 0 -31
5 -34 10 -7 12 -55 186 -55 201 0 5 13 9 29 9 27 0 30 -4 41 -50z m448 -57
l-3 -108 -27 -3 -28 -3 0 110 0 111 30 0 31 0 -3 -107z m2125 5 c21 -57 37
-106 37 -110 0 -5 -13 -8 -29 -8 -21 0 -32 6 -36 20 -5 15 -15 20 -45 20 -29
0 -39 -4 -43 -20 -4 -15 -14 -20 -36 -20 -17 0 -31 2 -31 4 0 2 16 46 35 98
20 51 38 99 40 106 2 6 19 12 38 12 33 0 33 -1 70 -102z m237 23 l0 -80 43 -3
c38 -3 42 -6 45 -31 l3 -28 -73 3 -73 3 -3 108 -3 107 31 0 30 0 0 -79z m890
39 c14 -22 28 -40 32 -40 5 0 8 18 8 40 0 38 2 40 30 40 l31 0 -3 -107 c-3
-103 -4 -108 -25 -111 -17 -3 -30 8 -55 47 -18 28 -36 51 -40 51 -5 0 -8 -22
-8 -50 0 -49 -1 -50 -30 -50 l-30 0 0 110 0 110 33 0 c27 0 36 -7 57 -40z
m532 -50 c1 -49 2 -98 2 -107 1 -13 -7 -18 -29 -18 l-30 0 -3 94 c-1 52 -1
100 2 108 3 7 17 13 31 13 25 0 25 -1 27 -90z m228 55 c0 -34 1 -35 40 -35 39
0 40 1 40 35 0 32 2 35 30 35 l30 0 0 -111 0 -110 -27 3 c-25 3 -28 7 -31 46
-3 42 -3 42 -42 42 -39 0 -39 0 -42 -42 -3 -39 -6 -43 -30 -46 l-28 -3 0 110
0 111 30 0 c28 0 30 -3 30 -35z m-4354 -410 c14 -9 32 -33 41 -52 12 -31 13
-41 1 -72 -21 -55 -68 -81 -144 -81 l-64 0 0 108 c0 60 3 112 8 116 12 13 131
-1 158 -19z m579 11 c38 -16 44 -36 19 -57 -12 -10 -20 -10 -35 -1 -42 26 -89
0 -89 -49 0 -31 24 -49 62 -48 l23 0 -23 10 c-17 6 -22 15 -20 31 3 21 8 23
63 23 55 0 60 -2 63 -23 8 -54 -69 -110 -134 -97 -18 3 -47 19 -64 36 -54 54
-37 144 34 175 40 17 59 17 101 0z m595 -16 c0 -25 -4 -30 -25 -30 -24 0 -24
-2 -27 -82 -3 -82 -3 -83 -30 -86 l-28 -3 0 85 0 86 -30 0 c-25 0 -30 4 -30
23 0 13 3 27 7 30 3 4 42 7 85 7 l78 0 0 -30z m905 0 c0 -22 -5 -25 -43 -28
-53 -4 -52 -26 1 -30 31 -3 37 -7 37 -27 0 -20 -6 -24 -37 -27 -48 -4 -45 -21
4 -28 33 -4 38 -9 38 -30 0 -24 -2 -25 -70 -25 l-70 0 -3 99 c-1 55 0 106 2
113 4 10 23 13 73 11 65 -3 68 -4 68 -28z m515 5 c0 -14 -16 -49 -35 -78 -19
-28 -35 -55 -35 -59 0 -5 16 -8 35 -8 32 0 35 -2 35 -30 l0 -30 -74 0 c-95 0
-100 11 -46 97 22 35 40 66 40 69 0 2 -16 4 -35 4 -19 0 -36 5 -36 10 -1 6 -2
16 -3 23 -4 24 6 27 80 27 73 0 74 0 74 -25z m1678 -7 c3 -27 1 -28 -37 -28
-30 0 -41 -4 -41 -15 0 -11 11 -15 41 -15 36 0 40 -2 37 -22 -2 -19 -11 -24
-43 -28 -33 -4 -40 -9 -41 -27 -1 -13 -2 -32 -3 -44 -1 -16 -7 -20 -28 -17
l-28 3 -3 99 c-1 55 0 106 2 113 4 10 23 13 73 11 66 -3 68 -4 71 -30z m317 2
c0 -20 -6 -26 -27 -28 l-28 -3 0 -85 0 -85 -27 3 c-28 3 -28 4 -31 86 -3 80
-3 82 -27 82 -20 0 -25 5 -25 23 0 13 3 27 7 31 4 4 41 5 83 4 73 -3 75 -4 75
-28z m-4327 -87 l-3 -108 -27 -3 -28 -3 0 110 0 111 30 0 31 0 -3 -107z m600
0 c-3 -105 -4 -108 -27 -111 -13 -2 -27 1 -30 7 -5 8 -7 196 -2 209 1 1 15 2
31 2 l31 0 -3 -107z m602 2 c21 -55 35 -103 33 -107 -9 -17 -55 -8 -60 12 -4
16 -14 20 -44 20 -28 0 -41 -5 -49 -20 -12 -23 -60 -28 -60 -6 0 7 16 57 37
110 l36 97 35 -3 c35 -3 36 -4 72 -103z m240 26 l0 -80 43 -3 c37 -3 42 -6 42
-28 0 -24 -3 -25 -72 -28 l-73 -3 0 111 0 110 30 0 30 0 0 -79z m1100 4 c0
-61 3 -77 16 -82 35 -13 49 11 52 86 l3 71 29 0 c30 0 30 0 30 -59 0 -91 -9
-121 -44 -143 -41 -25 -93 -18 -123 17 -20 22 -23 38 -23 106 l0 79 30 0 30 0
0 -75z m350 43 l1 -33 28 33 c22 25 35 32 65 32 l37 0 -35 -44 c-20 -23 -36
-46 -36 -50 0 -4 18 -33 41 -64 l40 -57 -32 -3 c-26 -3 -37 3 -61 32 -36 44
-46 45 -50 4 -2 -28 -8 -34 -30 -36 l-28 -3 0 110 0 111 30 0 c27 0 30 -3 30
-32z m352 -45 c3 -76 4 -78 28 -78 24 0 25 2 28 78 l3 77 29 0 30 0 0 -84 c0
-82 -1 -85 -31 -110 -35 -30 -74 -33 -109 -9 -38 26 -40 32 -40 121 l0 82 30
0 29 0 3 -77z m368 30 l30 -48 0 48 c0 46 1 47 30 47 l30 0 0 -110 c0 -107 -1
-110 -22 -110 -16 0 -33 16 -58 53 l-35 52 -5 -50 c-4 -43 -8 -50 -29 -53 -13
-2 -27 1 -31 8 -5 8 -6 145 -1 203 1 4 14 7 31 7 25 0 35 -8 60 -47z m918
-141 c4 -30 -26 -42 -44 -17 -10 14 -11 22 -2 32 16 20 42 12 46 -15z"/>
<path d="M3182 2918 l3 -133 44 -3 c98 -7 171 50 171 133 0 87 -56 135 -157
135 l-64 0 3 -132z"/>
<path d="M3859 3046 c-2 -2 -2 -28 0 -56 l3 -52 49 4 c26 3 55 11 64 18 18 15
20 61 3 78 -11 11 -109 17 -119 8z"/>
<path d="M6632 2998 c2 -42 7 -54 21 -56 38 -7 87 9 103 33 15 23 15 27 0 50
-14 22 -24 25 -72 25 l-55 0 3 -52z"/>
<path d="M915 2640 l-130 -130 133 0 132 0 0 130 c0 72 -1 130 -3 130 -1 0
-61 -58 -132 -130z"/>
<path d="M3753 2071 c-109 -69 -65 -241 62 -241 88 0 135 47 135 135 0 37 -6
52 -33 81 -28 31 -41 37 -83 41 -37 3 -57 -1 -81 -16z"/>
<path d="M6385 2070 c-34 -22 -65 -74 -65 -108 0 -129 175 -185 245 -78 58 89
-4 206 -110 206 -23 0 -53 -9 -70 -20z"/>
<path d="M3760 890 c0 -17 5 -21 28 -18 16 2 27 9 27 18 0 9 -11 16 -27 18
-23 3 -28 -1 -28 -18z"/>
<path d="M7920 891 c0 -11 6 -21 13 -24 20 -7 37 4 37 24 0 14 -7 19 -25 19
-18 0 -25 -5 -25 -19z"/>
<path d="M5586 861 c-4 -7 -5 -15 -2 -18 9 -9 19 4 14 18 -4 11 -6 11 -12 0z"/>
<path d="M3090 425 l0 -55 34 0 c39 0 59 19 59 57 0 32 -26 53 -65 53 -27 0
-28 -1 -28 -55z"/>
<path d="M4580 426 c0 -9 5 -16 10 -16 6 0 10 4 10 9 0 6 -4 13 -10 16 -5 3
-10 -1 -10 -9z"/>
</g>
</svg>
